M48
INCH,TZ
VER,1
FMAT,2
DETECT,ON
ATC,ON
T1C0.03500
T2C0.03543
T3C0.03937
T4C0.03917
T5C0.02362
T6C0.00700
%
T1
X1.10000Y1.20000
Y0.90000
Y1.10000
Y1.00000
X0.80000Y1.10000
Y0.90000
Y1.00000
Y1.20000
X0.40000Y0.40000
X2.40000Y1.30000
Y1.00000
Y1.20000
Y1.10000
X2.10000Y1.20000
Y1.00000
Y1.10000
Y1.30000
X4.18000Y2.60000
Y2.30000
Y2.50000
Y2.40000
X3.88000Y2.50000
Y2.30000
Y2.40000
Y2.60000
X4.88000Y2.68000
X2.86000Y1.02000
X2.56000Y0.72000
X0.70000Y0.40000
X0.80000Y0.50000
Y0.60000
X0.70000
Y0.30000
Y0.50000
X0.80000Y0.40000
X1.64000Y2.12000
X1.92000
X3.96000Y1.70000
T2
X0.61181Y1.20000
X0.10000
X1.32819Y1.34000
X1.84000
X0.61181Y1.54000
X0.10000
X1.32819Y1.10000
X1.84000
X1.34819Y0.88000
X1.86000
X1.16000Y0.16819
Y0.68000
X0.16000Y0.16819
Y0.68000
X2.39181Y0.56000
X1.88000
X4.40000Y2.35181
Y1.84000
X4.60000Y2.35181
Y1.84000
X4.80000Y2.35181
Y1.84000
X3.38000Y2.39181
Y1.88000
X3.58000Y2.39181
Y1.88000
X4.36197Y2.56315
Y2.76000
X4.58040Y2.55772
Y2.75457
X2.25685Y0.74197
X2.06000
X2.97685Y1.60197
X2.78000
X3.13181Y1.42000
X2.62000
X2.04819Y1.60000
X2.56000
X3.18000Y2.39181
Y1.88000
X3.08315Y2.59803
X3.28000
X3.44315
X3.64000
X1.42197Y2.38315
Y2.58000
X2.12197Y2.36315
Y2.56000
T3
X0.89464Y1.62536
X0.82393Y1.55464
X0.96536
X2.87464Y0.66536
X2.80393Y0.59464
X2.94536
T4
X0.40000Y0.50000
X4.78000Y2.68000
X2.86000Y1.12000
X2.56000Y0.82000
X0.80000Y0.30000
X1.64000Y2.22000
X1.92000
X3.96000Y1.80000
T5
X1.91960Y1.64050
Y1.74100
Y1.69090
X1.61960Y1.62050
Y1.72100
Y1.67090
X2.66000Y0.94000
X2.64000Y1.80000
X2.86000Y1.18000
X3.76000Y1.74000
X3.71000Y1.88000
X1.33000Y1.52000
X2.20000Y1.80000
Y2.00000
X1.86000Y1.94000
X3.27000Y2.46000
X4.28000Y2.45000
X1.65000Y0.80000
T6
X0.23000Y1.82000
X1.66000Y0.63000
X1.77000Y0.35000
X0.99000Y2.14000
X2.40000Y2.05000
X3.93000
X3.46000Y0.92000
M30
